<?xml version="1.0" encoding="UTF-8"?>
<svg version="1.1" xmlns="http://www.w3.org/2000/svg" width="500" height="500">
<path d="M0 0 C165 0 330 0 500 0 C500 165 500 330 500 500 C335 500 170 500 0 500 C0 335 0 170 0 0 Z " fill="#FEFEFE" transform="translate(0,0)"/>
<path d="M0 0 C0.9215538 0.00222061 1.8431076 0.00444122 2.79258728 0.00672913 C3.83359085 0.00680466 4.87459442 0.00688019 5.94714355 0.00695801 C7.07941879 0.01211929 8.21169403 0.01728058 9.37828064 0.02259827 C10.53106003 0.02401321 11.68383942 0.02542816 12.87155151 0.02688599 C16.57043503 0.03250446 20.26925903 0.0450601 23.96812439 0.05775452 C26.46877456 0.06276714 28.96942567 0.06733045 31.47007751 0.07142639 C37.61528027 0.0824799 43.76044808 0.099236 49.90562439 0.12025452 C52.79040588 7.14214401 55.65493049 14.17204518 58.50547791 21.207901 C59.47770927 23.60074884 60.4545735 25.99171972 61.43614197 28.38075256 C62.84573701 31.81383304 64.23856693 35.25330511 65.62828064 38.69447327 C66.07091751 39.7623558 66.51355438 40.83023834 66.96960449 41.93048096 C67.57034035 43.43147087 67.57034035 43.43147087 68.18321228 44.96278381 C68.54073074 45.83992538 68.89824921 46.71706696 69.26660156 47.62078857 C70.19836068 51.26525959 69.5853143 53.89112886 67.78453064 57.14759827 C67.35011658 57.77794983 66.91570251 58.40830139 66.46812439 59.05775452 C61.96664481 65.60169647 61.58498134 71.83978321 61.49156189 79.54994202 C61.47219574 80.54027435 61.45282959 81.53060669 61.43287659 82.5509491 C61.37332886 85.69896462 61.32679469 88.8470172 61.28062439 91.99525452 C61.24242179 94.13589504 61.20336874 96.27652056 61.16343689 98.41712952 C61.06764766 103.65138202 60.9835251 108.88570646 60.90562439 114.12025452 C56.94562439 114.12025452 52.98562439 114.12025452 48.90562439 114.12025452 C46.38385934 107.19109606 43.862457 100.26180586 41.34165668 93.33229637 C40.17056933 90.11309923 38.99933593 86.89395539 37.82774353 83.67494202 C36.47433588 79.95635993 35.12160883 76.23753043 33.76890564 72.51869202 C33.35723648 71.38789215 32.94556732 70.25709229 32.52142334 69.09202576 C29.61953748 61.11197662 26.75402685 53.11952005 23.90562439 45.12025452 C19.52175726 55.32552621 15.70737625 65.68407294 11.90562439 76.12025452 C18.83562439 76.12025452 25.76562439 76.12025452 32.90562439 76.12025452 C34.75998041 81.2095448 36.61239216 86.29945498 38.45982361 91.39125061 C39.08920862 93.12409019 39.71973855 94.85651436 40.35142517 96.58851624 C41.25790649 99.07458039 42.16029305 101.56209736 43.06187439 104.04994202 C43.48841309 105.21564224 43.48841309 105.21564224 43.92356873 106.40489197 C45.90562439 111.8925111 45.90562439 111.8925111 45.90562439 114.12025452 C15.54562439 114.12025452 -14.81437561 114.12025452 -46.09437561 114.12025452 C-44.96946771 107.3708071 -44.96946771 107.3708071 -43.70594788 104.22181702 C-43.28166756 103.15127831 -43.28166756 103.15127831 -42.84881592 102.05911255 C-42.53926468 101.2955394 -42.22971344 100.53196625 -41.91078186 99.74525452 C-41.58362686 98.92395554 -41.25647186 98.10265656 -40.91940308 97.25646973 C-40.20930699 95.47564208 -39.49651347 93.69588816 -38.78132629 91.917099 C-37.24728349 88.10147666 -35.72623054 84.28071981 -34.204422 80.46020508 C-33.40271003 78.44778737 -32.60033044 76.43563551 -31.7973175 74.42373657 C-27.30218835 63.15560456 -22.88390653 51.85764893 -18.46937561 40.55775452 C-17.72928137 38.66515341 -16.98912976 36.77257475 -16.24891663 34.88002014 C-15.53853096 33.06296982 -14.82816274 31.24591268 -14.11781311 29.42884827 C-13.77888535 28.56238678 -13.43995758 27.69592529 -13.09075928 26.8032074 C-11.40088492 22.47941251 -9.71946758 18.15259898 -8.05238342 13.81996155 C-7.72879852 12.98102859 -7.40521362 12.14209564 -7.07182312 11.27774048 C-6.46047998 9.69148706 -5.85130034 8.1043976 -5.24461365 6.51635742 C-2.79261678 0.16034601 -2.79261678 0.16034601 0 0 Z " fill="#181717" transform="translate(83.09437561035156,194.87974548339844)"/>
<path d="M0 0 C0.89138672 0.12846313 0.89138672 0.12846313 1.80078125 0.25952148 C4.5337451 0.65294289 7.26687088 1.04522846 10 1.4375 C11.40185547 1.63956055 11.40185547 1.63956055 12.83203125 1.84570312 C18.21578507 2.6175 23.60086513 3.34420885 29 4 C28.38022301 9.67328545 27.72054539 15.33857197 27 21 C27.65484375 21.07476562 28.3096875 21.14953125 28.984375 21.2265625 C39.76494611 22.77969563 48.83521117 26.58504152 55.79296875 35.16796875 C57 37 57 37 58 40 C55.69 40 53.38 40 51 40 C51 57.16 51 74.32 51 92 C42 92 42 92 38.5 91.34375 C37.75878906 91.20839844 37.01757812 91.07304687 36.25390625 90.93359375 C35.51011719 90.79050781 34.76632812 90.64742188 34 90.5 C33.22527344 90.35691406 32.45054687 90.21382813 31.65234375 90.06640625 C29.76704421 89.71727671 27.88334061 89.35954684 26 89 C26.39142722 81.99480251 27.26251276 75.19772998 28.5625 68.3125 C29.66625667 62.44269865 30.32708418 56.99654337 30 51 C27.09926819 50.32198966 27.09926819 50.32198966 24 50 C21.20379227 52.79620773 21.11247008 55.87077049 20.4921875 59.6328125 C20.36184113 60.38464813 20.23149475 61.13648376 20.09719849 61.91110229 C19.6822917 64.31451625 19.27853028 66.71965246 18.875 69.125 C18.59578362 70.75403181 18.31584466 72.38293994 18.03515625 74.01171875 C17.34837546 78.00642531 16.67158484 82.00271184 16 86 C11.13626393 86.02378814 6.51159711 85.97580449 1.6875 85.25 C0.68074219 85.11078125 -0.32601563 84.9715625 -1.36328125 84.828125 C-4.52232489 83.83595129 -5.43684098 82.88090741 -7 80 C-7 79.01 -7 78.02 -7 77 C-6.34 77 -5.68 77 -5 77 C-5.09087891 76.38068604 -5.18175781 75.76137207 -5.27539062 75.12329102 C-5.69017182 72.27060675 -6.09513612 69.41660797 -6.5 66.5625 C-6.64308594 65.58861328 -6.78617187 64.61472656 -6.93359375 63.61132812 C-7.06894531 62.64775391 -7.20429688 61.68417969 -7.34375 60.69140625 C-7.46943359 59.81685791 -7.59511719 58.94230957 -7.72460938 58.04125977 C-8.42054296 50.35575912 -7.75611361 43.1618416 -6.50390625 35.56640625 C-6.27440529 34.1276841 -6.27440529 34.1276841 -6.04026794 32.65989685 C-5.71822901 30.65009077 -5.39282967 28.64082048 -5.06420898 26.63208008 C-4.56017493 23.54827465 -4.06735691 20.4628286 -3.57617188 17.37695312 C-3.26106761 15.41916595 -2.94533498 13.46147979 -2.62890625 11.50390625 C-2.4069735 10.11807091 -2.4069735 10.11807091 -2.18055725 8.70423889 C-1.97045265 7.42666969 -1.97045265 7.42666969 -1.75610352 6.12329102 C-1.63396988 5.37322281 -1.51183624 4.6231546 -1.38600159 3.85035706 C-1 2 -1 2 0 0 Z " fill="#1A1919" transform="translate(323,203)"/>
<path d="M0 0 C0.50944993 2.81107194 1.0077016 5.62341589 1.5 8.4375 C1.64308594 9.22060547 1.78617187 10.00371094 1.93359375 10.81054688 C2.87971603 16.28454005 3.13345719 21.44484438 3 27 C1.95545654 27.13575439 0.91091309 27.27150879 -0.1652832 27.41137695 C-4.0415698 27.91857602 -7.91544674 28.4424729 -11.78881836 28.97143555 C-13.46529138 29.19800349 -15.1423829 29.420043 -16.82006836 29.63745117 C-19.23207851 29.95081976 -21.64139238 30.28042923 -24.05078125 30.61328125 C-24.80087967 30.70716629 -25.55097809 30.80105133 -26.32380676 30.89778137 C-29.26538179 31.31719079 -31.53845627 31.66544789 -33.97338867 33.43041992 C-35.48793516 35.74600122 -35.40533638 37.29775748 -35 40 C-33.98029682 41.93654948 -33.98029682 41.93654948 -32 43 C-28.82365485 43.39704314 -26.85996999 43.49933741 -24.0625 41.875 C-22.72593708 39.9136096 -22.72593708 39.9136096 -23.1875 36.9375 C-23.76648363 33.90484132 -23.76648363 33.90484132 -26 32 C-22.93852743 31.49357075 -19.87567701 30.99600678 -16.8125 30.5 C-15.94818359 30.35691406 -15.08386719 30.21382813 -14.19335938 30.06640625 C-4.84835408 28.56261229 -4.84835408 28.56261229 -2 29 C3.29084352 33.70562607 5.63551381 39.8758327 6.4375 46.75 C6.22293158 52.9724843 3.54026523 58.61475095 -0.984375 62.86328125 C-9.48178271 68.93501052 -18.7548816 70.24513289 -28.9140625 71.4609375 C-33.98677453 72.09101133 -39.00048979 73.04484984 -44.01391602 74.03515625 C-48.74964767 74.92637191 -53.17971959 75.11848734 -58 75 C-58.50704109 71.62601911 -59.00436536 68.25067379 -59.5 64.875 C-59.71462891 63.44800781 -59.71462891 63.44800781 -59.93359375 61.9921875 C-61.30215065 52.60779735 -61.30215065 52.60779735 -61 48 C-59.33657163 46.33657163 -57.2174291 46.63951903 -54.9375 46.4375 C-54.01839844 46.35371094 -53.09929687 46.26992188 -52.15234375 46.18359375 C-51.44207031 46.12300781 -50.73179687 46.06242187 -50 46 C-51.85625 45.9690625 -51.85625 45.9690625 -53.75 45.9375 C-56.34528887 45.62514665 -57.58253435 45.44686464 -59.38671875 43.515625 C-63.35934231 36.60414609 -64.46741076 28.46774074 -62.38671875 20.71484375 C-59.33780223 13.74397295 -53.23593847 9.59440564 -46.34887695 6.73852539 C-40.72460986 4.97016369 -34.81327069 4.27984338 -29 3.375 C-27.64570162 3.15706693 -26.29153346 2.93832299 -24.9375 2.71875 C-21.29343506 2.13309671 -17.64853127 1.55712658 -14 1 C-12.78183594 0.8138916 -11.56367188 0.6277832 -10.30859375 0.43603516 C-6.8364457 -0.0215546 -3.49805946 -0.07138897 0 0 Z " fill="#191818" transform="translate(310,250)"/>
<path d="M0 0 C9.9 0 19.8 0 30 0 C30 3.63 30 7.26 30 11 C29.05898438 11.4125 28.11796875 11.825 27.1484375 12.25 C19.69892498 15.65001857 13.98780244 18.50233398 10 26 C9.38125 27.11375 8.7625 28.2275 8.125 29.375 C5.53726752 37.71324909 7.11975982 44.94218522 10 53 C9.34 53 8.68 53 8 53 C8.165 53.825 8.33 54.65 8.5 55.5 C9.05896045 59.41272317 9.06807187 63.05183173 9 67 C-0.7151912 70.04790312 -10.49548744 70.4746768 -19.859375 66.125 C-28.97625517 61.33364692 -34.41000395 55.29731083 -38.14303589 45.76583862 C-39.4885755 41.42313001 -39.49807578 37.34881786 -39.390625 32.8359375 C-39.38496521 31.91785309 -39.37930542 30.99976868 -39.37347412 30.05386353 C-39.35132475 27.1603477 -39.30117171 24.26813289 -39.25 21.375 C-39.22990718 19.39715347 -39.21166133 17.41928727 -39.1953125 15.44140625 C-39.15495466 10.62671626 -39.07662797 5.81479074 -39 1 C-29.43 1 -19.86 1 -10 1 C-9.505 19.315 -9.505 19.315 -9 38 C-6.69 38 -4.38 38 -2 38 C0.0568946 35.9431054 -0.74252924 31.64444002 -0.68359375 28.80859375 C-0.66281265 27.98875504 -0.64203156 27.16891632 -0.62062073 26.32423401 C-0.55503506 23.69541099 -0.49619874 21.06648496 -0.4375 18.4375 C-0.39432333 16.65949439 -0.35070933 14.88149935 -0.30664062 13.10351562 C-0.19851829 8.73578128 -0.09951272 4.36797309 0 0 Z " fill="#1A1919" transform="translate(236,241)"/>
<path d="M0 0 C0 9.57 0 19.14 0 29 C-4.29 29 -8.58 29 -13 29 C-13 41.54 -13 54.08 -13 67 C-22.9 67 -32.8 67 -43 67 C-43.09239162 61.36154493 -43.17185652 55.72577029 -43.21972656 50.0871582 C-43.23970419 48.17365566 -43.26689599 46.26021308 -43.30175781 44.34692383 C-43.75282985 18.93432121 -43.75282985 18.93432121 -33.9140625 8.71875 C-23.6863113 -0.46535312 -13.16319902 -0.23717476 0 0 Z " fill="#1D1C1C" transform="translate(191,241)"/>
<path d="M0 0 C9.57 0 19.14 0 29 0 C29 22.11 29 44.22 29 67 C19.43 67 9.86 67 0 67 C0 44.89 0 22.78 0 0 Z " fill="#181717" transform="translate(379,247)"/>
<path d="M0 0 C0 0.33 0 0.66 0 1 C-5.61 1.99 -11.22 2.98 -17 4 C-16.01 5.485 -16.01 5.485 -15 7 C-15.1875 10.0625 -15.1875 10.0625 -16 13 C-19.49124017 15.32749345 -20.89222251 15.50299316 -25 15 C-27.7912125 13.01677007 -28.82597224 11.87013879 -29.5 8.5 C-28.81015542 5.05077711 -27.80421709 4.14818465 -25 2 C-21.91939936 1.0545949 -18.81332895 0.61763279 -15.625 0.1875 C-14.78710938 0.05408203 -13.94921875 -0.07933594 -13.0859375 -0.21679688 C-8.4699733 -0.89540167 -4.60310326 -1.10204589 0 0 Z " fill="#EAE5E5" transform="translate(303,279)"/>
<path d="M0 0 C0.99 0 1.98 0 3 0 C3.99 1.98 4.98 3.96 6 6 C6.33 4.35 6.66 2.7 7 1 C7.66 1 8.32 1 9 1 C9 4.63 9 8.26 9 12 C8.01 12 7.02 12 6 12 C5.01 9.69 4.02 7.38 3 5 C2.67 6.98 2.34 8.96 2 11 C1.34 11 0.68 11 0 11 C0 7.37 0 3.74 0 0 Z " fill="#333232" transform="translate(395,207)"/>
<path d="M0 0 C-1.65 3.3 -3.3 6.6 -5 10 C-7 8 -7 8 -8 5 C-10.01508358 4.26676204 -10.01508358 4.26676204 -12 4 C-8.39472339 -0.17453081 -5.3716027 -1.34290068 0 0 Z " fill="#5C5C5C" transform="translate(430,222)"/>
<path d="M0 0 C0.66 0 1.32 0 2 0 C1.67 1.65 1.34 3.3 1 5 C2.32 5.33 3.64 5.66 5 6 C5.33 5.01 5.66 4.02 6 3 C6.66 3 7.32 3 8 3 C6.8905928 6.48670834 5.73662334 9.77484237 4 13 C3.34 13 2.68 13 2 13 C2.33 11.35 2.66 9.7 3 8 C1.68 8 0.36 8 -1 8 C-1.33 8.66 -1.66 9.32 -2 10 C-2.66 10 -3.32 10 -4 10 C-3.43697042 6.05879291 -2.3208055 3.2491277 0 0 Z " fill="#393939" transform="translate(412,210)"/>
<path d="M0 0 C1.67542976 0.28604898 3.34385343 0.61781233 5 1 C5 1.33 5 1.66 5 2 C3.35 2 1.7 2 0 2 C0 2.66 0 3.32 0 4 C2.31 4 4.62 4 7 4 C7.33 5.65 7.66 7.3 8 9 C5 11 5 11 2.3125 10.625 C1.549375 10.41875 0.78625 10.2125 0 10 C0.66 9.34 1.32 8.68 2 8 C2.99 8 3.98 8 5 8 C5.33 7.34 5.66 6.68 6 6 C3.36 6 0.72 6 -2 6 C-1.125 1.125 -1.125 1.125 0 0 Z " fill="#363636" transform="translate(376,213)"/>
<path d="M0 0 C0.99 0 1.98 0 3 0 C3.66 3.63 4.32 7.26 5 11 C4.01 10.67 3.02 10.34 2 10 C1.34 6.7 0.68 3.4 0 0 Z " fill="#4E4E4E" transform="translate(386,209)"/>
<path d="M0 0 C1.32 0.33 2.64 0.66 4 1 C2.35 4.3 0.7 7.6 -1 11 C-1.66 10.34 -2.32 9.68 -3 9 C-2.67 8.01 -2.34 7.02 -2 6 C-1.34 6 -0.68 6 0 6 C0 4.02 0 2.04 0 0 Z " fill="#302F2F" transform="translate(426,221)"/>
</svg>
